STARTFONT 2.1
FONT -FontForge-Retro Gaming-Book-R-Normal--18-170-75-75-P-136-ISO10646-1
SIZE 17 75 75
FONTBOUNDINGBOX 24 23 -1 -5
COMMENT "Generated by fontforge, http://fontforge.sourceforge.net"
COMMENT "Copyright (c) 2019 by Vasily Draigo aka Daymarius. All rights reserved."
STARTPROPERTIES 39
FOUNDRY "FontForge"
FAMILY_NAME "Retro Gaming"
WEIGHT_NAME "Book"
SLANT "R"
SETWIDTH_NAME "Normal"
ADD_STYLE_NAME ""
PIXEL_SIZE 18
POINT_SIZE 170
RESOLUTION_X 75
RESOLUTION_Y 75
SPACING "P"
AVERAGE_WIDTH 136
CHARSET_REGISTRY "ISO10646"
CHARSET_ENCODING "1"
FONTNAME_REGISTRY ""
CHARSET_COLLECTIONS "ISO8859-5 ISO10646-1"
FONT_NAME "RetroGaming"
FACE_NAME "Retro Gaming"
COPYRIGHT "Copyright (c) 2019 by Vasily Draigo aka Daymarius. All rights reserved."
FONT_VERSION "1.00 February 22, 2019, initial release"
FONT_ASCENT 14
FONT_DESCENT 4
UNDERLINE_POSITION 1
UNDERLINE_THICKNESS 1
X_HEIGHT 7
CAP_HEIGHT 12
RAW_ASCENT 799
RAW_DESCENT 200
NORM_SPACE 7
RELATIVE_WEIGHT 40
RELATIVE_SETWIDTH 50
SUPERSCRIPT_X 0
SUPERSCRIPT_Y 9
SUPERSCRIPT_SIZE 9
SUBSCRIPT_X 0
SUBSCRIPT_Y -2
SUBSCRIPT_SIZE 9
AVG_LOWERCASE_WIDTH 139
AVG_UPPERCASE_WIDTH 145
ENDPROPERTIES
CHARS 319
STARTCHAR space
ENCODING 32
SWIDTH 363 0
DWIDTH 7 0
BBX 1 1 0 0
BITMAP
00
ENDCHAR
STARTCHAR exclam
ENCODING 33
SWIDTH 318 0
DWIDTH 6 0
BBX 3 13 2 0
BITMAP
E0
E0
E0
E0
E0
E0
E0
E0
00
00
E0
E0
E0
ENDCHAR
STARTCHAR quotedbl
ENCODING 34
SWIDTH 590 0
DWIDTH 11 0
BBX 8 5 2 8
BITMAP
E7
E7
E7
E7
E7
ENDCHAR
STARTCHAR numbersign
ENCODING 35
SWIDTH 1045 0
DWIDTH 19 0
BBX 16 13 2 0
BITMAP
1C78
1C78
1C78
FFFF
FFFF
1C78
1C78
1C78
FFFF
FFFF
1C78
1C78
1C78
ENDCHAR
STARTCHAR dollar
ENCODING 36
SWIDTH 772 0
DWIDTH 14 0
BBX 11 19 2 -3
BITMAP
0E00
0E00
0E00
7F80
7F80
E4E0
E400
E400
7F80
04E0
04E0
04E0
04E0
E4E0
7F80
7F80
0E00
0E00
0E00
ENDCHAR
STARTCHAR percent
ENCODING 37
SWIDTH 772 0
DWIDTH 14 0
BBX 11 13 2 0
BITMAP
78E0
78E0
98E0
E380
E380
0700
1C00
1C00
78E0
78E0
E360
E380
E380
ENDCHAR
STARTCHAR ampersand
ENCODING 38
SWIDTH 863 0
DWIDTH 16 0
BBX 13 13 2 0
BITMAP
7F80
7F80
E0E0
E000
E000
7C00
E1F8
E1F8
E1C0
E1C0
E1C0
7F80
7F80
ENDCHAR
STARTCHAR quotesingle
ENCODING 39
SWIDTH 318 0
DWIDTH 6 0
BBX 3 5 2 8
BITMAP
E0
E0
E0
E0
E0
ENDCHAR
STARTCHAR parenleft
ENCODING 40
SWIDTH 500 0
DWIDTH 9 0
BBX 6 13 2 0
BITMAP
1C
1C
78
E0
E0
E0
E0
E0
E0
E0
78
1C
1C
ENDCHAR
STARTCHAR parenright
ENCODING 41
SWIDTH 500 0
DWIDTH 9 0
BBX 6 13 2 0
BITMAP
E0
E0
78
1C
1C
1C
1C
1C
1C
1C
78
E0
E0
ENDCHAR
STARTCHAR asterisk
ENCODING 42
SWIDTH 863 0
DWIDTH 16 0
BBX 13 8 2 3
BITMAP
79E0
0F80
0F80
FFF8
0F80
0F80
79E0
79E0
ENDCHAR
STARTCHAR plus
ENCODING 43
SWIDTH 681 0
DWIDTH 12 0
BBX 9 9 2 2
BITMAP
1C00
1C00
1C00
1C00
FF80
1C00
1C00
1C00
1C00
ENDCHAR
STARTCHAR comma
ENCODING 44
SWIDTH 318 0
DWIDTH 6 0
BBX 5 5 0 -2
BITMAP
38
38
38
E0
E0
ENDCHAR
STARTCHAR hyphen
ENCODING 45
SWIDTH 500 0
DWIDTH 9 0
BBX 6 1 2 6
BITMAP
FC
ENDCHAR
STARTCHAR period
ENCODING 46
SWIDTH 318 0
DWIDTH 6 0
BBX 3 3 2 0
BITMAP
E0
E0
E0
ENDCHAR
STARTCHAR slash
ENCODING 47
SWIDTH 772 0
DWIDTH 14 0
BBX 11 13 2 0
BITMAP
00E0
00E0
00E0
0380
0380
0700
1C00
1C00
7800
7800
E000
E000
E000
ENDCHAR
STARTCHAR zero
ENCODING 48
SWIDTH 772 0
DWIDTH 14 0
BBX 11 13 2 0
BITMAP
7F80
7F80
E0E0
E3E0
E3E0
E7E0
FCE0
FCE0
F8E0
F8E0
E0E0
7F80
7F80
ENDCHAR
STARTCHAR one
ENCODING 49
SWIDTH 500 0
DWIDTH 9 0
BBX 6 13 2 0
BITMAP
78
78
F8
78
78
78
78
78
78
78
78
FC
FC
ENDCHAR
STARTCHAR two
ENCODING 50
SWIDTH 772 0
DWIDTH 14 0
BBX 11 13 2 0
BITMAP
7F80
7F80
E0E0
00E0
00E0
7F80
E000
E000
E000
E000
E0E0
FFE0
FFE0
ENDCHAR
STARTCHAR three
ENCODING 51
SWIDTH 772 0
DWIDTH 14 0
BBX 11 13 2 0
BITMAP
FFE0
FFE0
0380
0700
0700
1F80
00E0
00E0
00E0
00E0
E0E0
7F80
7F80
ENDCHAR
STARTCHAR four
ENCODING 52
SWIDTH 772 0
DWIDTH 14 0
BBX 11 13 2 0
BITMAP
07E0
07E0
1CE0
78E0
78E0
E0E0
FFE0
FFE0
00E0
00E0
00E0
00E0
00E0
ENDCHAR
STARTCHAR five
ENCODING 53
SWIDTH 772 0
DWIDTH 14 0
BBX 11 13 2 0
BITMAP
FF80
FF80
E000
E000
E000
FF80
00E0
00E0
00E0
00E0
E0E0
7F80
7F80
ENDCHAR
STARTCHAR six
ENCODING 54
SWIDTH 772 0
DWIDTH 14 0
BBX 11 13 2 0
BITMAP
7F80
7F80
E0E0
E000
E000
FF80
E0E0
E0E0
E0E0
E0E0
E0E0
7F80
7F80
ENDCHAR
STARTCHAR seven
ENCODING 55
SWIDTH 772 0
DWIDTH 14 0
BBX 11 13 2 0
BITMAP
FFE0
FFE0
E0E0
0380
0380
0700
1C00
1C00
1C00
1C00
1C00
1C00
1C00
ENDCHAR
STARTCHAR eight
ENCODING 56
SWIDTH 772 0
DWIDTH 14 0
BBX 11 13 2 0
BITMAP
7F80
7F80
E0E0
E0E0
E0E0
7F80
E0E0
E0E0
E0E0
E0E0
E0E0
7F80
7F80
ENDCHAR
STARTCHAR nine
ENCODING 57
SWIDTH 772 0
DWIDTH 14 0
BBX 11 13 2 0
BITMAP
7F80
7F80
E0E0
E0E0
E0E0
E0E0
7FE0
7FE0
00E0
00E0
E0E0
7F80
7F80
ENDCHAR
STARTCHAR colon
ENCODING 58
SWIDTH 318 0
DWIDTH 6 0
BBX 3 10 2 0
BITMAP
E0
E0
E0
00
00
00
00
E0
E0
E0
ENDCHAR
STARTCHAR semicolon
ENCODING 59
SWIDTH 318 0
DWIDTH 6 0
BBX 5 12 0 -2
BITMAP
38
38
38
00
00
00
00
38
38
38
E0
E0
ENDCHAR
STARTCHAR less
ENCODING 60
SWIDTH 590 0
DWIDTH 11 0
BBX 8 11 2 0
BITMAP
07
1C
1C
78
E0
E0
78
78
1C
07
07
ENDCHAR
STARTCHAR equal
ENCODING 61
SWIDTH 590 0
DWIDTH 11 0
BBX 8 5 2 3
BITMAP
FF
00
00
FF
FF
ENDCHAR
STARTCHAR greater
ENCODING 62
SWIDTH 590 0
DWIDTH 11 0
BBX 8 11 2 0
BITMAP
E0
78
78
1C
07
07
1C
1C
78
E0
E0
ENDCHAR
STARTCHAR question
ENCODING 63
SWIDTH 772 0
DWIDTH 14 0
BBX 11 13 2 0
BITMAP
7F80
7F80
E0E0
00E0
00E0
0780
1C00
1C00
0000
0000
1C00
1C00
1C00
ENDCHAR
STARTCHAR at
ENCODING 64
SWIDTH 772 0
DWIDTH 14 0
BBX 11 13 2 0
BITMAP
7F80
7F80
8060
9F60
9F60
9B60
9B60
9B60
9FE0
9FE0
8000
7F80
7F80
ENDCHAR
STARTCHAR A
ENCODING 65
SWIDTH 772 0
DWIDTH 14 0
BBX 11 13 2 0
BITMAP
1F00
1F00
7B80
E0E0
E0E0
E0E0
FFE0
FFE0
E0E0
E0E0
E0E0
E0E0
E0E0
ENDCHAR
STARTCHAR B
ENCODING 66
SWIDTH 772 0
DWIDTH 14 0
BBX 11 13 2 0
BITMAP
FF80
FF80
E0E0
E0E0
E0E0
FF80
E0E0
E0E0
E0E0
E0E0
E0E0
FF80
FF80
ENDCHAR
STARTCHAR C
ENCODING 67
SWIDTH 772 0
DWIDTH 14 0
BBX 11 13 2 0
BITMAP
1F80
1F80
78E0
E000
E000
E000
E000
E000
E000
E000
78E0
1F80
1F80
ENDCHAR
STARTCHAR D
ENCODING 68
SWIDTH 772 0
DWIDTH 14 0
BBX 11 13 2 0
BITMAP
FF00
FF00
E380
E0E0
E0E0
E0E0
E0E0
E0E0
E0E0
E0E0
E380
FF00
FF00
ENDCHAR
STARTCHAR E
ENCODING 69
SWIDTH 772 0
DWIDTH 14 0
BBX 11 13 2 0
BITMAP
FFE0
FFE0
E000
E000
E000
FF00
E000
E000
E000
E000
E000
FFE0
FFE0
ENDCHAR
STARTCHAR F
ENCODING 70
SWIDTH 772 0
DWIDTH 14 0
BBX 11 13 2 0
BITMAP
FFE0
FFE0
E000
E000
E000
FF00
E000
E000
E000
E000
E000
E000
E000
ENDCHAR
STARTCHAR G
ENCODING 71
SWIDTH 772 0
DWIDTH 14 0
BBX 11 13 2 0
BITMAP
1F80
1F80
78E0
E000
E000
E000
E7E0
E0E0
E0E0
E0E0
78E0
1FE0
1FE0
ENDCHAR
STARTCHAR H
ENCODING 72
SWIDTH 772 0
DWIDTH 14 0
BBX 11 13 2 0
BITMAP
E0E0
E0E0
E0E0
E0E0
E0E0
FFE0
E0E0
E0E0
E0E0
E0E0
E0E0
E0E0
E0E0
ENDCHAR
STARTCHAR I
ENCODING 73
SWIDTH 681 0
DWIDTH 12 0
BBX 9 13 2 0
BITMAP
FF80
FF80
1C00
1C00
1C00
1C00
1C00
1C00
1C00
1C00
1C00
FF80
FF80
ENDCHAR
STARTCHAR J
ENCODING 74
SWIDTH 772 0
DWIDTH 14 0
BBX 11 13 2 0
BITMAP
1FE0
1FE0
00E0
00E0
00E0
00E0
00E0
00E0
E0E0
E0E0
E0E0
7F80
7F80
ENDCHAR
STARTCHAR K
ENCODING 75
SWIDTH 772 0
DWIDTH 14 0
BBX 11 13 2 0
BITMAP
E0E0
E0E0
E380
E700
E700
FC00
E700
E700
E380
E380
E0E0
E0E0
E0E0
ENDCHAR
STARTCHAR L
ENCODING 76
SWIDTH 681 0
DWIDTH 12 0
BBX 9 13 2 0
BITMAP
E000
E000
E000
E000
E000
E000
E000
E000
E000
E000
E000
FF80
FF80
ENDCHAR
STARTCHAR M
ENCODING 77
SWIDTH 772 0
DWIDTH 14 0
BBX 11 13 2 0
BITMAP
8060
8060
E0E0
FBE0
FBE0
FFE0
E4E0
E4E0
E0E0
E0E0
E0E0
E0E0
E0E0
ENDCHAR
STARTCHAR N
ENCODING 78
SWIDTH 772 0
DWIDTH 14 0
BBX 11 13 2 0
BITMAP
80E0
80E0
E0E0
F8E0
F8E0
FCE0
E7E0
E7E0
E3E0
E3E0
E0E0
E060
E060
ENDCHAR
STARTCHAR O
ENCODING 79
SWIDTH 772 0
DWIDTH 14 0
BBX 11 13 2 0
BITMAP
7F80
7F80
E0E0
E0E0
E0E0
E0E0
E0E0
E0E0
E0E0
E0E0
E0E0
7F80
7F80
ENDCHAR
STARTCHAR P
ENCODING 80
SWIDTH 772 0
DWIDTH 14 0
BBX 11 13 2 0
BITMAP
FF80
FF80
E0E0
E0E0
E0E0
FF80
E000
E000
E000
E000
E000
E000
E000
ENDCHAR
STARTCHAR Q
ENCODING 81
SWIDTH 772 0
DWIDTH 14 0
BBX 11 13 2 0
BITMAP
7F80
7F80
E0E0
E0E0
E0E0
E0E0
E0E0
E0E0
E7E0
E7E0
E380
7F60
7F60
ENDCHAR
STARTCHAR R
ENCODING 82
SWIDTH 772 0
DWIDTH 14 0
BBX 11 13 2 0
BITMAP
FF80
FF80
E0E0
E0E0
E0E0
FF80
E0E0
E0E0
E0E0
E0E0
E0E0
E0E0
E0E0
ENDCHAR
STARTCHAR S
ENCODING 83
SWIDTH 772 0
DWIDTH 14 0
BBX 11 13 2 0
BITMAP
7F80
7F80
E0E0
E000
E000
7F80
00E0
00E0
00E0
00E0
E0E0
7F80
7F80
ENDCHAR
STARTCHAR T
ENCODING 84
SWIDTH 772 0
DWIDTH 14 0
BBX 11 13 2 0
BITMAP
FFE0
FFE0
0E00
0E00
0E00
0E00
0E00
0E00
0E00
0E00
0E00
0E00
0E00
ENDCHAR
STARTCHAR U
ENCODING 85
SWIDTH 772 0
DWIDTH 14 0
BBX 11 13 2 0
BITMAP
E0E0
E0E0
E0E0
E0E0
E0E0
E0E0
E0E0
E0E0
E0E0
E0E0
E0E0
7F80
7F80
ENDCHAR
STARTCHAR V
ENCODING 86
SWIDTH 772 0
DWIDTH 14 0
BBX 11 13 2 0
BITMAP
E0E0
E0E0
E0E0
E0E0
E0E0
E0E0
E0E0
E0E0
7B80
7B80
1F00
0400
0400
ENDCHAR
STARTCHAR W
ENCODING 87
SWIDTH 863 0
DWIDTH 16 0
BBX 13 13 2 0
BITMAP
E678
E678
E678
E678
E678
E678
E678
E678
FFF8
FFF8
F8F8
6060
6060
ENDCHAR
STARTCHAR X
ENCODING 88
SWIDTH 772 0
DWIDTH 14 0
BBX 11 13 2 0
BITMAP
E0E0
E0E0
E0E0
7B80
7B80
1F00
7B80
7B80
E0E0
E0E0
E0E0
E0E0
E0E0
ENDCHAR
STARTCHAR Y
ENCODING 89
SWIDTH 772 0
DWIDTH 14 0
BBX 11 13 2 0
BITMAP
E0E0
E0E0
E0E0
E0E0
E0E0
7B80
1F00
1F00
0E00
0E00
0E00
0E00
0E00
ENDCHAR
STARTCHAR Z
ENCODING 90
SWIDTH 772 0
DWIDTH 14 0
BBX 11 13 2 0
BITMAP
FFE0
FFE0
00E0
0380
0380
0700
1C00
1C00
7800
7800
E000
FFE0
FFE0
ENDCHAR
STARTCHAR bracketleft
ENCODING 91
SWIDTH 500 0
DWIDTH 9 0
BBX 6 13 2 0
BITMAP
FC
FC
E0
E0
E0
E0
E0
E0
E0
E0
E0
FC
FC
ENDCHAR
STARTCHAR backslash
ENCODING 92
SWIDTH 772 0
DWIDTH 14 0
BBX 11 13 2 0
BITMAP
E000
E000
E000
7800
7800
1C00
0700
0700
0380
0380
00E0
00E0
00E0
ENDCHAR
STARTCHAR bracketright
ENCODING 93
SWIDTH 500 0
DWIDTH 9 0
BBX 6 13 2 0
BITMAP
FC
FC
1C
1C
1C
1C
1C
1C
1C
1C
1C
FC
FC
ENDCHAR
STARTCHAR asciicircum
ENCODING 94
SWIDTH 772 0
DWIDTH 14 0
BBX 11 5 2 8
BITMAP
1F00
1F00
7B80
E0E0
E0E0
ENDCHAR
STARTCHAR underscore
ENCODING 95
SWIDTH 590 0
DWIDTH 11 0
BBX 8 2 2 0
BITMAP
FF
FF
ENDCHAR
STARTCHAR grave
ENCODING 96
SWIDTH 500 0
DWIDTH 9 0
BBX 6 5 2 8
BITMAP
E0
E0
78
1C
1C
ENDCHAR
STARTCHAR a
ENCODING 97
SWIDTH 772 0
DWIDTH 14 0
BBX 11 8 2 0
BITMAP
7F80
00E0
00E0
7FE0
7FE0
E0E0
7FE0
7FE0
ENDCHAR
STARTCHAR b
ENCODING 98
SWIDTH 772 0
DWIDTH 14 0
BBX 11 13 2 0
BITMAP
E000
E000
E000
E000
E000
FF80
E0E0
E0E0
E0E0
E0E0
E0E0
FF80
FF80
ENDCHAR
STARTCHAR c
ENCODING 99
SWIDTH 772 0
DWIDTH 14 0
BBX 11 8 2 0
BITMAP
7F80
E0E0
E0E0
E000
E000
E0E0
7F80
7F80
ENDCHAR
STARTCHAR d
ENCODING 100
SWIDTH 772 0
DWIDTH 14 0
BBX 11 13 2 0
BITMAP
00E0
00E0
00E0
00E0
00E0
7FE0
E0E0
E0E0
E0E0
E0E0
E0E0
7FE0
7FE0
ENDCHAR
STARTCHAR e
ENCODING 101
SWIDTH 772 0
DWIDTH 14 0
BBX 11 8 2 0
BITMAP
7F80
E0E0
E0E0
FFE0
FFE0
E000
7F80
7F80
ENDCHAR
STARTCHAR f
ENCODING 102
SWIDTH 590 0
DWIDTH 11 0
BBX 8 13 2 0
BITMAP
1F
1F
78
78
78
FF
78
78
78
78
78
78
78
ENDCHAR
STARTCHAR g
ENCODING 103
SWIDTH 772 0
DWIDTH 14 0
BBX 11 13 2 -5
BITMAP
7FE0
E0E0
E0E0
E0E0
E0E0
E0E0
7FE0
7FE0
00E0
00E0
00E0
7F80
7F80
ENDCHAR
STARTCHAR h
ENCODING 104
SWIDTH 772 0
DWIDTH 14 0
BBX 11 13 2 0
BITMAP
E000
E000
E000
E000
E000
FF80
E0E0
E0E0
E0E0
E0E0
E0E0
E0E0
E0E0
ENDCHAR
STARTCHAR i
ENCODING 105
SWIDTH 318 0
DWIDTH 6 0
BBX 3 13 2 0
BITMAP
E0
E0
E0
00
00
E0
E0
E0
E0
E0
E0
E0
E0
ENDCHAR
STARTCHAR j
ENCODING 106
SWIDTH 590 0
DWIDTH 11 0
BBX 8 15 2 -2
BITMAP
07
07
07
00
00
07
07
07
07
07
07
E7
E7
7C
7C
ENDCHAR
STARTCHAR k
ENCODING 107
SWIDTH 681 0
DWIDTH 12 0
BBX 9 13 2 0
BITMAP
E000
E000
E000
E000
E000
E380
E700
E700
FC00
FC00
E700
E380
E380
ENDCHAR
STARTCHAR l
ENCODING 108
SWIDTH 408 0
DWIDTH 7 0
BBX 5 13 2 0
BITMAP
E0
E0
E0
E0
E0
E0
E0
E0
E0
E0
E0
78
78
ENDCHAR
STARTCHAR m
ENCODING 109
SWIDTH 772 0
DWIDTH 14 0
BBX 11 8 2 0
BITMAP
FF80
E4E0
E4E0
E4E0
E4E0
E4E0
E4E0
E4E0
ENDCHAR
STARTCHAR n
ENCODING 110
SWIDTH 772 0
DWIDTH 14 0
BBX 11 8 2 0
BITMAP
FF80
E0E0
E0E0
E0E0
E0E0
E0E0
E0E0
E0E0
ENDCHAR
STARTCHAR o
ENCODING 111
SWIDTH 772 0
DWIDTH 14 0
BBX 11 8 2 0
BITMAP
7F80
E0E0
E0E0
E0E0
E0E0
E0E0
7F80
7F80
ENDCHAR
STARTCHAR p
ENCODING 112
SWIDTH 772 0
DWIDTH 14 0
BBX 11 13 2 -5
BITMAP
FF80
E0E0
E0E0
E0E0
E0E0
E0E0
FF80
FF80
E000
E000
E000
E000
E000
ENDCHAR
STARTCHAR q
ENCODING 113
SWIDTH 772 0
DWIDTH 14 0
BBX 11 13 2 -5
BITMAP
7FE0
E0E0
E0E0
E0E0
E0E0
E0E0
7FE0
7FE0
00E0
00E0
00E0
00E0
00E0
ENDCHAR
STARTCHAR r
ENCODING 114
SWIDTH 681 0
DWIDTH 12 0
BBX 9 8 2 0
BITMAP
E780
F800
F800
E000
E000
E000
E000
E000
ENDCHAR
STARTCHAR s
ENCODING 115
SWIDTH 772 0
DWIDTH 14 0
BBX 11 8 2 0
BITMAP
7F80
E000
E000
7F80
7F80
00E0
FF80
FF80
ENDCHAR
STARTCHAR t
ENCODING 116
SWIDTH 590 0
DWIDTH 11 0
BBX 8 13 2 0
BITMAP
78
78
78
78
78
FF
78
78
78
78
78
1F
1F
ENDCHAR
STARTCHAR u
ENCODING 117
SWIDTH 772 0
DWIDTH 14 0
BBX 11 8 2 0
BITMAP
E0E0
E0E0
E0E0
E0E0
E0E0
E0E0
7F80
7F80
ENDCHAR
STARTCHAR v
ENCODING 118
SWIDTH 772 0
DWIDTH 14 0
BBX 11 8 2 0
BITMAP
E0E0
E0E0
E0E0
E0E0
E0E0
7B80
1F00
1F00
ENDCHAR
STARTCHAR w
ENCODING 119
SWIDTH 772 0
DWIDTH 14 0
BBX 11 8 2 0
BITMAP
E4E0
E4E0
E4E0
E4E0
E4E0
E4E0
7B80
7B80
ENDCHAR
STARTCHAR x
ENCODING 120
SWIDTH 772 0
DWIDTH 14 0
BBX 11 8 2 0
BITMAP
E0E0
7B80
7F80
1F00
1F00
7F80
E0E0
E0E0
ENDCHAR
STARTCHAR y
ENCODING 121
SWIDTH 772 0
DWIDTH 14 0
BBX 11 13 2 -5
BITMAP
E0E0
E0E0
E0E0
E0E0
E0E0
E0E0
7FE0
7FE0
00E0
00E0
00E0
7F80
7F80
ENDCHAR
STARTCHAR z
ENCODING 122
SWIDTH 772 0
DWIDTH 14 0
BBX 11 8 2 0
BITMAP
FFE0
0780
0780
1F00
1F00
7C00
FFE0
FFE0
ENDCHAR
STARTCHAR braceleft
ENCODING 123
SWIDTH 500 0
DWIDTH 9 0
BBX 6 13 2 0
BITMAP
1C
1C
78
78
78
78
E0
78
78
78
78
1C
1C
ENDCHAR
STARTCHAR bar
ENCODING 124
SWIDTH 318 0
DWIDTH 6 0
BBX 3 16 2 -3
BITMAP
E0
E0
E0
E0
E0
E0
E0
E0
E0
E0
E0
E0
E0
E0
E0
E0
ENDCHAR
STARTCHAR braceright
ENCODING 125
SWIDTH 500 0
DWIDTH 9 0
BBX 6 13 2 0
BITMAP
E0
E0
78
78
78
78
1C
78
78
78
78
E0
E0
ENDCHAR
STARTCHAR asciitilde
ENCODING 126
SWIDTH 681 0
DWIDTH 12 0
BBX 9 5 2 5
BITMAP
7800
7800
9C80
0700
0700
ENDCHAR
STARTCHAR exclamdown
ENCODING 161
SWIDTH 318 0
DWIDTH 6 0
BBX 3 13 2 0
BITMAP
E0
E0
E0
00
00
E0
E0
E0
E0
E0
E0
E0
E0
ENDCHAR
STARTCHAR cent
ENCODING 162
SWIDTH 772 0
DWIDTH 14 0
BBX 11 12 2 -2
BITMAP
0400
0400
7F80
E4E0
E4E0
E400
E400
E4E0
7F80
7F80
0400
0400
ENDCHAR
STARTCHAR sterling
ENCODING 163
SWIDTH 772 0
DWIDTH 14 0
BBX 11 13 2 0
BITMAP
1F80
1F80
78E0
7800
7800
FF80
7800
7800
7800
7800
7800
FFE0
FFE0
ENDCHAR
STARTCHAR currency
ENCODING 164
SWIDTH 727 0
DWIDTH 13 0
BBX 10 9 2 2
BITMAP
9E40
9E40
6180
6180
6180
6180
6180
9E40
9E40
ENDCHAR
STARTCHAR yen
ENCODING 165
SWIDTH 772 0
DWIDTH 14 0
BBX 11 13 2 0
BITMAP
E0E0
E0E0
E0E0
E0E0
E0E0
7B80
1F00
FFE0
FFE0
0E00
FFE0
0E00
0E00
ENDCHAR
STARTCHAR brokenbar
ENCODING 166
SWIDTH 272 0
DWIDTH 5 0
BBX 2 21 2 -5
BITMAP
C0
C0
C0
C0
C0
C0
C0
C0
C0
00
00
00
C0
C0
C0
C0
C0
C0
C0
C0
C0
ENDCHAR
STARTCHAR section
ENCODING 167
SWIDTH 772 0
DWIDTH 14 0
BBX 11 13 2 0
BITMAP
7F80
7F80
E0E0
E000
FF00
FF00
6080
1F80
1FE0
00E0
E0E0
7F80
7F80
ENDCHAR
STARTCHAR dieresis
ENCODING 168
SWIDTH 590 0
DWIDTH 11 0
BBX 8 3 2 10
BITMAP
E7
E7
E7
ENDCHAR
STARTCHAR copyright
ENCODING 169
SWIDTH 954 0
DWIDTH 17 0
BBX 14 13 2 0
BITMAP
7FF8
7FF8
E01C
E7DC
E7DC
EE1C
EE1C
EE1C
E7DC
E7DC
E01C
7FF8
7FF8
ENDCHAR
STARTCHAR ordfeminine
ENCODING 170
SWIDTH 500 0
DWIDTH 9 0
BBX 6 9 2 4
BITMAP
78
78
04
7C
7C
84
84
7C
7C
ENDCHAR
STARTCHAR guillemotleft
ENCODING 171
SWIDTH 954 0
DWIDTH 17 0
BBX 14 11 2 0
BITMAP
071C
1C78
1C78
78E0
E380
E380
78E0
78E0
1C78
071C
071C
ENDCHAR
STARTCHAR registered
ENCODING 174
SWIDTH 681 0
DWIDTH 12 0
BBX 9 10 2 3
BITMAP
7F00
7F00
BE80
BE80
B680
BE80
B680
8080
7F00
7F00
ENDCHAR
STARTCHAR plusminus
ENCODING 177
SWIDTH 681 0
DWIDTH 12 0
BBX 9 11 2 1
BITMAP
1C00
1C00
1C00
FF80
FF80
1C00
1C00
1C00
0000
0000
FF80
ENDCHAR
STARTCHAR mu
ENCODING 181
SWIDTH 772 0
DWIDTH 14 0
BBX 12 13 1 -5
BITMAP
E030
E030
E030
E030
E030
F9F0
E730
E730
E000
E000
E000
E000
E000
ENDCHAR
STARTCHAR paragraph
ENCODING 182
SWIDTH 772 0
DWIDTH 14 0
BBX 11 13 2 0
BITMAP
7FE0
7FE0
FF60
FF60
FF60
7F60
0360
0360
0360
0360
0360
0360
03E0
ENDCHAR
STARTCHAR guillemotright
ENCODING 187
SWIDTH 954 0
DWIDTH 17 0
BBX 14 11 2 0
BITMAP
E380
78E0
78E0
1C78
071C
071C
1C78
1C78
78E0
E380
E380
ENDCHAR
STARTCHAR questiondown
ENCODING 191
SWIDTH 772 0
DWIDTH 14 0
BBX 11 13 2 0
BITMAP
0700
0700
0700
0000
0000
0700
7C00
7C00
E000
E000
E0E0
7F80
7F80
ENDCHAR
STARTCHAR Agrave
ENCODING 192
SWIDTH 772 0
DWIDTH 14 0
BBX 11 18 2 0
BITMAP
3800
3800
0E00
0000
0000
1F00
1F00
7B80
E0E0
E0E0
E0E0
FFE0
FFE0
E0E0
E0E0
E0E0
E0E0
E0E0
ENDCHAR
STARTCHAR Aacute
ENCODING 193
SWIDTH 772 0
DWIDTH 14 0
BBX 11 18 2 0
BITMAP
0780
0780
0E00
0000
0000
1F00
1F00
7B80
E0E0
E0E0
E0E0
FFE0
FFE0
E0E0
E0E0
E0E0
E0E0
E0E0
ENDCHAR
STARTCHAR Acircumflex
ENCODING 194
SWIDTH 772 0
DWIDTH 14 0
BBX 11 18 2 0
BITMAP
1F00
1F00
7B80
0000
0000
1F00
1F00
7B80
E0E0
E0E0
E0E0
FFE0
FFE0
E0E0
E0E0
E0E0
E0E0
E0E0
ENDCHAR
STARTCHAR Atilde
ENCODING 195
SWIDTH 772 0
DWIDTH 14 0
BBX 11 18 2 0
BITMAP
0980
0980
3600
0000
0000
1F00
1F00
7B80
E0E0
E0E0
E0E0
FFE0
FFE0
E0E0
E0E0
E0E0
E0E0
E0E0
ENDCHAR
STARTCHAR Adieresis
ENCODING 196
SWIDTH 772 0
DWIDTH 14 0
BBX 11 18 2 0
BITMAP
7B80
7B80
7B80
0000
0000
1F00
1F00
7B80
E0E0
E0E0
E0E0
FFE0
FFE0
E0E0
E0E0
E0E0
E0E0
E0E0
ENDCHAR
STARTCHAR Aring
ENCODING 197
SWIDTH 772 0
DWIDTH 14 0
BBX 11 18 2 0
BITMAP
0400
0400
1B00
0400
0400
1F00
1F00
7B80
E0E0
E0E0
E0E0
FFE0
FFE0
E0E0
E0E0
E0E0
E0E0
E0E0
ENDCHAR
STARTCHAR AE
ENCODING 198
SWIDTH 1045 0
DWIDTH 19 0
BBX 16 13 2 0
BITMAP
1FFF
1FFF
7B80
E380
E380
E3FC
FF80
FF80
E380
E380
E380
E3FF
E3FF
ENDCHAR
STARTCHAR Ccedilla
ENCODING 199
SWIDTH 772 0
DWIDTH 14 0
BBX 11 16 2 -3
BITMAP
1F80
1F80
78E0
E000
E000
E000
E000
E000
E000
E000
78E0
1F80
1F80
0380
0380
1F00
ENDCHAR
STARTCHAR Egrave
ENCODING 200
SWIDTH 772 0
DWIDTH 14 0
BBX 11 18 2 0
BITMAP
3800
3800
0E00
0000
0000
FFE0
FFE0
E000
E000
E000
FF00
E000
E000
E000
E000
E000
FFE0
FFE0
ENDCHAR
STARTCHAR Eacute
ENCODING 201
SWIDTH 772 0
DWIDTH 14 0
BBX 11 18 2 0
BITMAP
0780
0780
0E00
0000
0000
FFE0
FFE0
E000
E000
E000
FF00
E000
E000
E000
E000
E000
FFE0
FFE0
ENDCHAR
STARTCHAR Ecircumflex
ENCODING 202
SWIDTH 772 0
DWIDTH 14 0
BBX 11 18 2 0
BITMAP
1F00
1F00
7B80
0000
0000
FFE0
FFE0
E000
E000
E000
FF00
E000
E000
E000
E000
E000
FFE0
FFE0
ENDCHAR
STARTCHAR Edieresis
ENCODING 203
SWIDTH 772 0
DWIDTH 14 0
BBX 11 18 2 0
BITMAP
7B80
7B80
7B80
0000
0000
FFE0
FFE0
E000
E000
E000
FF00
E000
E000
E000
E000
E000
FFE0
FFE0
ENDCHAR
STARTCHAR Igrave
ENCODING 204
SWIDTH 681 0
DWIDTH 12 0
BBX 9 18 2 0
BITMAP
7800
7800
1C00
0000
0000
FF80
FF80
1C00
1C00
1C00
1C00
1C00
1C00
1C00
1C00
1C00
FF80
FF80
ENDCHAR
STARTCHAR Iacute
ENCODING 205
SWIDTH 681 0
DWIDTH 12 0
BBX 9 18 2 0
BITMAP
0700
0700
1C00
0000
0000
FF80
FF80
1C00
1C00
1C00
1C00
1C00
1C00
1C00
1C00
1C00
FF80
FF80
ENDCHAR
STARTCHAR Icircumflex
ENCODING 206
SWIDTH 681 0
DWIDTH 12 0
BBX 9 18 2 0
BITMAP
3E00
3E00
F780
0000
0000
FF80
FF80
1C00
1C00
1C00
1C00
1C00
1C00
1C00
1C00
1C00
FF80
FF80
ENDCHAR
STARTCHAR Idieresis
ENCODING 207
SWIDTH 681 0
DWIDTH 12 0
BBX 9 18 2 0
BITMAP
F780
F780
F780
0000
0000
FF80
FF80
1C00
1C00
1C00
1C00
1C00
1C00
1C00
1C00
1C00
FF80
FF80
ENDCHAR
STARTCHAR Eth
ENCODING 208
SWIDTH 863 0
DWIDTH 16 0
BBX 13 13 2 0
BITMAP
7F80
7F80
78E0
7878
7878
7878
FF78
7878
7878
7878
7860
7F80
7F80
ENDCHAR
STARTCHAR Ntilde
ENCODING 209
SWIDTH 772 0
DWIDTH 14 0
BBX 11 18 2 0
BITMAP
0980
0980
3600
0000
0000
80E0
80E0
E0E0
F8E0
F8E0
FCE0
E7E0
E7E0
E3E0
E3E0
E0E0
E060
E060
ENDCHAR
STARTCHAR Ograve
ENCODING 210
SWIDTH 772 0
DWIDTH 14 0
BBX 11 18 2 0
BITMAP
3800
3800
0E00
0000
0000
7F80
7F80
E0E0
E0E0
E0E0
E0E0
E0E0
E0E0
E0E0
E0E0
E0E0
7F80
7F80
ENDCHAR
STARTCHAR Oacute
ENCODING 211
SWIDTH 772 0
DWIDTH 14 0
BBX 11 18 2 0
BITMAP
0780
0780
0E00
0000
0000
7F80
7F80
E0E0
E0E0
E0E0
E0E0
E0E0
E0E0
E0E0
E0E0
E0E0
7F80
7F80
ENDCHAR
STARTCHAR Ocircumflex
ENCODING 212
SWIDTH 772 0
DWIDTH 14 0
BBX 11 18 2 0
BITMAP
1F00
1F00
7B80
0000
0000
7F80
7F80
E0E0
E0E0
E0E0
E0E0
E0E0
E0E0
E0E0
E0E0
E0E0
7F80
7F80
ENDCHAR
STARTCHAR Otilde
ENCODING 213
SWIDTH 772 0
DWIDTH 14 0
BBX 11 18 2 0
BITMAP
0980
0980
3600
0000
0000
7F80
7F80
E0E0
E0E0
E0E0
E0E0
E0E0
E0E0
E0E0
E0E0
E0E0
7F80
7F80
ENDCHAR
STARTCHAR Odieresis
ENCODING 214
SWIDTH 772 0
DWIDTH 14 0
BBX 11 18 2 0
BITMAP
7B80
7B80
7B80
0000
0000
7F80
7F80
E0E0
E0E0
E0E0
E0E0
E0E0
E0E0
E0E0
E0E0
E0E0
7F80
7F80
ENDCHAR
STARTCHAR multiply
ENCODING 215
SWIDTH 590 0
DWIDTH 11 0
BBX 8 8 2 3
BITMAP
83
64
64
18
64
64
83
83
ENDCHAR
STARTCHAR Oslash
ENCODING 216
SWIDTH 772 0
DWIDTH 14 0
BBX 11 13 2 0
BITMAP
7F60
7F60
E0E0
E3E0
E3E0
E4E0
E4E0
E4E0
F8E0
F8E0
60E0
9F00
9F00
ENDCHAR
STARTCHAR Ugrave
ENCODING 217
SWIDTH 772 0
DWIDTH 14 0
BBX 11 18 2 0
BITMAP
3800
3800
0E00
0000
0000
E0E0
E0E0
E0E0
E0E0
E0E0
E0E0
E0E0
E0E0
E0E0
E0E0
E0E0
7F80
7F80
ENDCHAR
STARTCHAR Uacute
ENCODING 218
SWIDTH 772 0
DWIDTH 14 0
BBX 11 18 2 0
BITMAP
0780
0780
0E00
0000
0000
E0E0
E0E0
E0E0
E0E0
E0E0
E0E0
E0E0
E0E0
E0E0
E0E0
E0E0
7F80
7F80
ENDCHAR
STARTCHAR Ucircumflex
ENCODING 219
SWIDTH 772 0
DWIDTH 14 0
BBX 11 18 2 0
BITMAP
1F00
1F00
7B80
0000
0000
E0E0
E0E0
E0E0
E0E0
E0E0
E0E0
E0E0
E0E0
E0E0
E0E0
E0E0
7F80
7F80
ENDCHAR
STARTCHAR Udieresis
ENCODING 220
SWIDTH 772 0
DWIDTH 14 0
BBX 11 18 2 0
BITMAP
7B80
7B80
7B80
0000
0000
E0E0
E0E0
E0E0
E0E0
E0E0
E0E0
E0E0
E0E0
E0E0
E0E0
E0E0
7F80
7F80
ENDCHAR
STARTCHAR Yacute
ENCODING 221
SWIDTH 772 0
DWIDTH 14 0
BBX 11 18 2 0
BITMAP
0780
0780
0E00
0000
0000
E0E0
E0E0
E0E0
E0E0
E0E0
7B80
1F00
1F00
0E00
0E00
0E00
0E00
0E00
ENDCHAR
STARTCHAR Thorn
ENCODING 222
SWIDTH 772 0
DWIDTH 14 0
BBX 11 13 2 0
BITMAP
E000
E000
FF80
E0E0
E0E0
E0E0
E0E0
E0E0
E0E0
E0E0
FF80
E000
E000
ENDCHAR
STARTCHAR germandbls
ENCODING 223
SWIDTH 772 0
DWIDTH 14 0
BBX 11 13 2 0
BITMAP
FF00
FF00
E380
E380
E380
E700
E700
E700
E380
E380
ECE0
E780
E780
ENDCHAR
STARTCHAR agrave
ENCODING 224
SWIDTH 772 0
DWIDTH 14 0
BBX 11 13 2 0
BITMAP
3800
3800
0E00
0000
0000
7F80
00E0
00E0
7FE0
7FE0
E0E0
7FE0
7FE0
ENDCHAR
STARTCHAR aacute
ENCODING 225
SWIDTH 772 0
DWIDTH 14 0
BBX 11 13 2 0
BITMAP
0780
0780
0E00
0000
0000
7F80
00E0
00E0
7FE0
7FE0
E0E0
7FE0
7FE0
ENDCHAR
STARTCHAR acircumflex
ENCODING 226
SWIDTH 772 0
DWIDTH 14 0
BBX 11 13 2 0
BITMAP
1F00
1F00
7B80
0000
0000
7F80
00E0
00E0
7FE0
7FE0
E0E0
7FE0
7FE0
ENDCHAR
STARTCHAR atilde
ENCODING 227
SWIDTH 772 0
DWIDTH 14 0
BBX 11 13 2 0
BITMAP
0980
0980
3600
0000
0000
7F80
00E0
00E0
7FE0
7FE0
E0E0
7FE0
7FE0
ENDCHAR
STARTCHAR adieresis
ENCODING 228
SWIDTH 772 0
DWIDTH 14 0
BBX 11 13 2 0
BITMAP
7B80
7B80
7B80
0000
0000
7F80
00E0
00E0
7FE0
7FE0
E0E0
7FE0
7FE0
ENDCHAR
STARTCHAR aring
ENCODING 229
SWIDTH 772 0
DWIDTH 14 0
BBX 11 13 2 0
BITMAP
0400
0400
1B00
0400
0400
7F80
00E0
00E0
7FE0
7FE0
E0E0
7FE0
7FE0
ENDCHAR
STARTCHAR ae
ENCODING 230
SWIDTH 1318 0
DWIDTH 24 0
BBX 21 8 2 0
BITMAP
7F9FE0
00F838
00F838
7FFFF8
7FFFF8
E0F800
7F9FE0
7F9FE0
ENDCHAR
STARTCHAR ccedilla
ENCODING 231
SWIDTH 772 0
DWIDTH 14 0
BBX 11 11 2 -3
BITMAP
7F80
E0E0
E0E0
E000
E000
E0E0
7F80
7F80
0380
0380
1F00
ENDCHAR
STARTCHAR egrave
ENCODING 232
SWIDTH 772 0
DWIDTH 14 0
BBX 11 13 2 0
BITMAP
3800
3800
0E00
0000
0000
7F80
E0E0
E0E0
FFE0
FFE0
E000
7F80
7F80
ENDCHAR
STARTCHAR eacute
ENCODING 233
SWIDTH 772 0
DWIDTH 14 0
BBX 11 13 2 0
BITMAP
0780
0780
0E00
0000
0000
7F80
E0E0
E0E0
FFE0
FFE0
E000
7F80
7F80
ENDCHAR
STARTCHAR ecircumflex
ENCODING 234
SWIDTH 772 0
DWIDTH 14 0
BBX 11 13 2 0
BITMAP
1F00
1F00
7B80
0000
0000
7F80
E0E0
E0E0
FFE0
FFE0
E000
7F80
7F80
ENDCHAR
STARTCHAR edieresis
ENCODING 235
SWIDTH 772 0
DWIDTH 14 0
BBX 11 13 2 0
BITMAP
7B80
7B80
7B80
0000
0000
7F80
E0E0
E0E0
FFE0
FFE0
E000
7F80
7F80
ENDCHAR
STARTCHAR igrave
ENCODING 236
SWIDTH 318 0
DWIDTH 6 0
BBX 5 13 0 0
BITMAP
E0
E0
38
00
00
38
38
38
38
38
38
38
38
ENDCHAR
STARTCHAR iacute
ENCODING 237
SWIDTH 408 0
DWIDTH 7 0
BBX 5 13 2 0
BITMAP
78
78
E0
00
00
E0
E0
E0
E0
E0
E0
E0
E0
ENDCHAR
STARTCHAR icircumflex
ENCODING 238
SWIDTH 454 0
DWIDTH 8 0
BBX 8 13 -1 0
BITMAP
3E
3E
E7
00
00
1C
1C
1C
1C
1C
1C
1C
1C
ENDCHAR
STARTCHAR idieresis
ENCODING 239
SWIDTH 454 0
DWIDTH 8 0
BBX 8 13 -1 0
BITMAP
E7
E7
E7
00
00
1C
1C
1C
1C
1C
1C
1C
1C
ENDCHAR
STARTCHAR eth
ENCODING 240
SWIDTH 863 0
DWIDTH 16 0
BBX 13 13 2 0
BITMAP
00E0
00E0
07F8
00E0
00E0
7FE0
E0E0
E0E0
E0E0
E0E0
E0E0
7F80
7F80
ENDCHAR
STARTCHAR ntilde
ENCODING 241
SWIDTH 772 0
DWIDTH 14 0
BBX 11 13 2 0
BITMAP
0980
0980
3600
0000
0000
FF80
E0E0
E0E0
E0E0
E0E0
E0E0
E0E0
E0E0
ENDCHAR
STARTCHAR ograve
ENCODING 242
SWIDTH 772 0
DWIDTH 14 0
BBX 11 13 2 0
BITMAP
3800
3800
0E00
0000
0000
7F80
E0E0
E0E0
E0E0
E0E0
E0E0
7F80
7F80
ENDCHAR
STARTCHAR oacute
ENCODING 243
SWIDTH 772 0
DWIDTH 14 0
BBX 11 13 2 0
BITMAP
0780
0780
0E00
0000
0000
7F80
E0E0
E0E0
E0E0
E0E0
E0E0
7F80
7F80
ENDCHAR
STARTCHAR ocircumflex
ENCODING 244
SWIDTH 772 0
DWIDTH 14 0
BBX 11 13 2 0
BITMAP
1F00
1F00
7B80
0000
0000
7F80
E0E0
E0E0
E0E0
E0E0
E0E0
7F80
7F80
ENDCHAR
STARTCHAR otilde
ENCODING 245
SWIDTH 772 0
DWIDTH 14 0
BBX 11 13 2 0
BITMAP
0980
0980
3600
0000
0000
7F80
E0E0
E0E0
E0E0
E0E0
E0E0
7F80
7F80
ENDCHAR
STARTCHAR odieresis
ENCODING 246
SWIDTH 772 0
DWIDTH 14 0
BBX 11 13 2 0
BITMAP
7B80
7B80
7B80
0000
0000
7F80
E0E0
E0E0
E0E0
E0E0
E0E0
7F80
7F80
ENDCHAR
STARTCHAR divide
ENCODING 247
SWIDTH 681 0
DWIDTH 12 0
BBX 9 8 2 2
BITMAP
1C00
1C00
0000
FF80
FF80
0000
0000
1C00
ENDCHAR
STARTCHAR oslash
ENCODING 248
SWIDTH 772 0
DWIDTH 14 0
BBX 11 8 2 0
BITMAP
7F60
E3C0
E780
E6E0
ECE0
78E0
FF80
9F80
ENDCHAR
STARTCHAR ugrave
ENCODING 249
SWIDTH 772 0
DWIDTH 14 0
BBX 11 13 2 0
BITMAP
3800
3800
0E00
0000
0000
E0E0
E0E0
E0E0
E0E0
E0E0
E0E0
7FE0
7FE0
ENDCHAR
STARTCHAR uacute
ENCODING 250
SWIDTH 772 0
DWIDTH 14 0
BBX 11 13 2 0
BITMAP
0780
0780
0E00
0000
0000
E0E0
E0E0
E0E0
E0E0
E0E0
E0E0
7FE0
7FE0
ENDCHAR
STARTCHAR ucircumflex
ENCODING 251
SWIDTH 772 0
DWIDTH 14 0
BBX 11 13 2 0
BITMAP
1F00
1F00
7B80
0000
0000
E0E0
E0E0
E0E0
E0E0
E0E0
E0E0
7FE0
7FE0
ENDCHAR
STARTCHAR udieresis
ENCODING 252
SWIDTH 772 0
DWIDTH 14 0
BBX 11 13 2 0
BITMAP
7B80
7B80
7B80
0000
0000
E0E0
E0E0
E0E0
E0E0
E0E0
E0E0
7FE0
7FE0
ENDCHAR
STARTCHAR yacute
ENCODING 253
SWIDTH 772 0
DWIDTH 14 0
BBX 11 18 2 -5
BITMAP
0780
0780
0E00
0000
0000
E0E0
E0E0
E0E0
E0E0
E0E0
E0E0
7FE0
7FE0
00E0
00E0
00E0
7F80
7F80
ENDCHAR
STARTCHAR thorn
ENCODING 254
SWIDTH 772 0
DWIDTH 14 0
BBX 11 18 2 -5
BITMAP
E000
E000
E000
E000
E000
FF80
E0E0
E0E0
E0E0
E0E0
E0E0
FF80
FF80
E000
E000
E000
E000
E000
ENDCHAR
STARTCHAR ydieresis
ENCODING 255
SWIDTH 772 0
DWIDTH 14 0
BBX 11 18 2 -5
BITMAP
7B80
7B80
7B80
0000
0000
E0E0
E0E0
E0E0
E0E0
E0E0
E0E0
7FE0
7FE0
00E0
00E0
00E0
7F80
7F80
ENDCHAR
STARTCHAR Ydieresis
ENCODING 376
SWIDTH 772 0
DWIDTH 14 0
BBX 11 18 2 0
BITMAP
7B80
7B80
7B80
0000
0000
E0E0
E0E0
E0E0
E0E0
E0E0
7B80
1F00
1F00
0E00
0E00
0E00
0E00
0E00
ENDCHAR
STARTCHAR Alpha
ENCODING 913
SWIDTH 772 0
DWIDTH 14 0
BBX 11 13 2 0
BITMAP
1F00
1F00
7B80
E0E0
E0E0
E0E0
FFE0
FFE0
E0E0
E0E0
E0E0
E0E0
E0E0
ENDCHAR
STARTCHAR Beta
ENCODING 914
SWIDTH 772 0
DWIDTH 14 0
BBX 11 13 2 0
BITMAP
FF80
FF80
E0E0
E0E0
E0E0
FF80
E0E0
E0E0
E0E0
E0E0
E0E0
FF80
FF80
ENDCHAR
STARTCHAR Gamma
ENCODING 915
SWIDTH 681 0
DWIDTH 12 0
BBX 9 13 2 0
BITMAP
FF80
FF80
E000
E000
E000
E000
E000
E000
E000
E000
E000
E000
E000
ENDCHAR
STARTCHAR uni0394
ENCODING 916
SWIDTH 1045 0
DWIDTH 19 0
BBX 16 13 2 0
BITMAP
0380
0380
0660
0660
1C78
1C78
1C78
781C
781C
781C
781C
FFFF
FFFF
ENDCHAR
STARTCHAR Epsilon
ENCODING 917
SWIDTH 772 0
DWIDTH 14 0
BBX 11 13 2 0
BITMAP
FFE0
FFE0
E000
E000
E000
FF00
E000
E000
E000
E000
E000
FFE0
FFE0
ENDCHAR
STARTCHAR Zeta
ENCODING 918
SWIDTH 772 0
DWIDTH 14 0
BBX 11 13 2 0
BITMAP
FFE0
FFE0
00E0
0380
0380
0700
1C00
1C00
7800
7800
E000
FFE0
FFE0
ENDCHAR
STARTCHAR Eta
ENCODING 919
SWIDTH 772 0
DWIDTH 14 0
BBX 11 13 2 0
BITMAP
E0E0
E0E0
E0E0
E0E0
E0E0
FFE0
E0E0
E0E0
E0E0
E0E0
E0E0
E0E0
E0E0
ENDCHAR
STARTCHAR Theta
ENCODING 920
SWIDTH 772 0
DWIDTH 14 0
BBX 11 13 2 0
BITMAP
7F80
7F80
E0E0
E0E0
E0E0
E0E0
EEE0
E0E0
E0E0
E0E0
E0E0
7F80
7F80
ENDCHAR
STARTCHAR Iota
ENCODING 921
SWIDTH 681 0
DWIDTH 12 0
BBX 9 13 2 0
BITMAP
FF80
FF80
1C00
1C00
1C00
1C00
1C00
1C00
1C00
1C00
1C00
FF80
FF80
ENDCHAR
STARTCHAR Kappa
ENCODING 922
SWIDTH 772 0
DWIDTH 14 0
BBX 11 13 2 0
BITMAP
E0E0
E0E0
E380
E700
E700
FC00
E700
E700
E380
E380
E0E0
E0E0
E0E0
ENDCHAR
STARTCHAR Lambda
ENCODING 923
SWIDTH 1045 0
DWIDTH 19 0
BBX 16 13 2 0
BITMAP
0380
0380
0660
0660
1C78
1C78
1C78
781C
781C
781C
781C
E007
E007
ENDCHAR
STARTCHAR Mu
ENCODING 924
SWIDTH 772 0
DWIDTH 14 0
BBX 11 13 2 0
BITMAP
8060
8060
E0E0
FBE0
FBE0
FFE0
E4E0
E4E0
E0E0
E0E0
E0E0
E0E0
E0E0
ENDCHAR
STARTCHAR Nu
ENCODING 925
SWIDTH 772 0
DWIDTH 14 0
BBX 11 13 2 0
BITMAP
80E0
80E0
E0E0
F8E0
F8E0
FCE0
E7E0
E7E0
E3E0
E3E0
E0E0
E060
E060
ENDCHAR
STARTCHAR Xi
ENCODING 926
SWIDTH 772 0
DWIDTH 14 0
BBX 11 13 2 0
BITMAP
FFE0
FFE0
0000
0000
0000
0000
3F80
0000
0000
0000
0000
FFE0
FFE0
ENDCHAR
STARTCHAR Omicron
ENCODING 927
SWIDTH 772 0
DWIDTH 14 0
BBX 11 13 2 0
BITMAP
7F80
7F80
E0E0
E0E0
E0E0
E0E0
E0E0
E0E0
E0E0
E0E0
E0E0
7F80
7F80
ENDCHAR
STARTCHAR Pi
ENCODING 928
SWIDTH 954 0
DWIDTH 17 0
BBX 14 13 2 0
BITMAP
FFFC
FFFC
7878
7878
7878
7878
7878
7878
7878
7878
7878
7878
7878
ENDCHAR
STARTCHAR Rho
ENCODING 929
SWIDTH 772 0
DWIDTH 14 0
BBX 11 13 2 0
BITMAP
FF80
FF80
E0E0
E0E0
E0E0
FF80
E000
E000
E000
E000
E000
E000
E000
ENDCHAR
STARTCHAR Sigma
ENCODING 931
SWIDTH 772 0
DWIDTH 14 0
BBX 11 13 2 0
BITMAP
FFE0
FFE0
E000
E000
7800
7800
1C00
7800
7800
E000
E000
FFE0
FFE0
ENDCHAR
STARTCHAR Tau
ENCODING 932
SWIDTH 772 0
DWIDTH 14 0
BBX 11 13 2 0
BITMAP
FFE0
FFE0
1E00
1E00
1E00
1E00
1E00
1E00
1E00
1E00
1E00
1E00
1E00
ENDCHAR
STARTCHAR Upsilon
ENCODING 933
SWIDTH 954 0
DWIDTH 17 0
BBX 14 13 2 0
BITMAP
E01C
E01C
7878
7878
7878
1CE0
0780
0780
0780
0780
0780
0780
0780
ENDCHAR
STARTCHAR Phi
ENCODING 934
SWIDTH 954 0
DWIDTH 17 0
BBX 14 13 2 0
BITMAP
0780
0780
7FF8
E79C
E79C
E79C
E79C
E79C
E79C
E79C
7FF8
0780
0780
ENDCHAR
STARTCHAR Chi
ENCODING 935
SWIDTH 772 0
DWIDTH 14 0
BBX 11 13 2 0
BITMAP
E0E0
E0E0
E0E0
7B80
7B80
1F00
7B80
7B80
E0E0
E0E0
E0E0
E0E0
E0E0
ENDCHAR
STARTCHAR Psi
ENCODING 936
SWIDTH 1136 0
DWIDTH 20 0
BBX 18 13 2 0
BITMAP
E1C3C0
E1C3C0
79C700
1DDC00
1DDC00
07F800
03E000
03E000
01C000
01C000
01C000
01C000
01C000
ENDCHAR
STARTCHAR uni03A9
ENCODING 937
SWIDTH 1136 0
DWIDTH 20 0
BBX 18 13 2 0
BITMAP
1FFC00
1FFC00
780700
E003C0
E003C0
E003C0
780700
780700
1C1C00
1C1C00
077800
FF7FC0
FF7FC0
ENDCHAR
STARTCHAR alpha
ENCODING 945
SWIDTH 772 0
DWIDTH 14 0
BBX 11 8 2 0
BITMAP
7CE0
E780
E780
E380
E380
E780
7CE0
7CE0
ENDCHAR
STARTCHAR beta
ENCODING 946
SWIDTH 772 0
DWIDTH 14 0
BBX 11 18 2 -5
BITMAP
1F80
1F80
78E0
E0E0
E0E0
E0E0
E780
E0E0
E0E0
E0E0
FB80
E700
E700
E000
E000
E000
E000
E000
ENDCHAR
STARTCHAR uni0401
ENCODING 1025
SWIDTH 772 0
DWIDTH 14 0
BBX 11 18 2 0
BITMAP
7B80
7B80
7B80
0000
0000
FFE0
FFE0
E000
E000
E000
FF00
E000
E000
E000
E000
E000
FFE0
FFE0
ENDCHAR
STARTCHAR uni0404
ENCODING 1028
SWIDTH 772 0
DWIDTH 14 0
BBX 11 13 2 0
BITMAP
1F80
1F80
78E0
E000
E000
E000
FF00
E000
E000
E000
78E0
1F80
1F80
ENDCHAR
STARTCHAR uni0406
ENCODING 1030
SWIDTH 681 0
DWIDTH 12 0
BBX 9 13 2 0
BITMAP
FF80
FF80
1C00
1C00
1C00
1C00
1C00
1C00
1C00
1C00
1C00
FF80
FF80
ENDCHAR
STARTCHAR uni0407
ENCODING 1031
SWIDTH 727 0
DWIDTH 13 0
BBX 10 18 2 0
BITMAP
F780
F780
F780
0000
0000
FF80
FF80
1E00
1E00
1E00
1E00
1E00
1E00
1E00
1E00
1E00
FFC0
FFC0
ENDCHAR
STARTCHAR uni0409
ENCODING 1033
SWIDTH 1181 0
DWIDTH 21 0
BBX 18 13 2 0
BITMAP
1FE000
1FE000
78E000
78E000
78E000
78FF80
78E1C0
78E1C0
78E1C0
78E1C0
78E1C0
E0FF80
E0FF80
ENDCHAR
STARTCHAR uni040A
ENCODING 1034
SWIDTH 1136 0
DWIDTH 20 0
BBX 18 13 2 0
BITMAP
E0E000
E0E000
E0E000
E0E000
E0E000
FFFF00
E0E3C0
E0E3C0
E0E3C0
E0E3C0
E0E3C0
E0FF00
E0FF00
ENDCHAR
STARTCHAR uni0410
ENCODING 1040
SWIDTH 772 0
DWIDTH 14 0
BBX 11 13 2 0
BITMAP
1F00
1F00
7B80
E0E0
E0E0
E0E0
FFE0
E0E0
E0E0
E0E0
E0E0
E0E0
E0E0
ENDCHAR
STARTCHAR uni0411
ENCODING 1041
SWIDTH 772 0
DWIDTH 14 0
BBX 11 13 2 0
BITMAP
FF80
FF80
E000
E000
E000
FF80
E0E0
E0E0
E0E0
E0E0
E0E0
FF80
FF80
ENDCHAR
STARTCHAR uni0412
ENCODING 1042
SWIDTH 772 0
DWIDTH 14 0
BBX 11 13 2 0
BITMAP
FF80
FF80
E0E0
E0E0
E0E0
FF80
E0E0
E0E0
E0E0
E0E0
E0E0
FF80
FF80
ENDCHAR
STARTCHAR uni0413
ENCODING 1043
SWIDTH 681 0
DWIDTH 12 0
BBX 9 13 2 0
BITMAP
FF80
FF80
E000
E000
E000
E000
E000
E000
E000
E000
E000
E000
E000
ENDCHAR
STARTCHAR uni0414
ENCODING 1044
SWIDTH 863 0
DWIDTH 16 0
BBX 13 15 2 -2
BITMAP
1FE0
1FE0
78E0
78E0
78E0
78E0
78E0
78E0
78E0
78E0
78E0
FFF8
FFF8
E078
E078
ENDCHAR
STARTCHAR uni0415
ENCODING 1045
SWIDTH 772 0
DWIDTH 14 0
BBX 11 13 2 0
BITMAP
FFE0
FFE0
E000
E000
E000
FF00
E000
E000
E000
E000
E000
FFE0
FFE0
ENDCHAR
STARTCHAR uni0416
ENCODING 1046
SWIDTH 863 0
DWIDTH 16 0
BBX 13 13 2 0
BITMAP
E778
E778
E778
E778
E778
7FE0
E778
E778
E778
E778
E778
E778
E778
ENDCHAR
STARTCHAR uni0417
ENCODING 1047
SWIDTH 772 0
DWIDTH 14 0
BBX 11 13 2 0
BITMAP
7F80
7F80
E0E0
00E0
00E0
00E0
0F80
00E0
00E0
00E0
E0E0
7F80
7F80
ENDCHAR
STARTCHAR uni0418
ENCODING 1048
SWIDTH 772 0
DWIDTH 14 0
BBX 11 13 2 0
BITMAP
E060
E060
E0E0
E3E0
E3E0
E7E0
FCE0
FCE0
F8E0
F8E0
E0E0
80E0
80E0
ENDCHAR
STARTCHAR uni0419
ENCODING 1049
SWIDTH 772 0
DWIDTH 14 0
BBX 11 18 2 0
BITMAP
F1C0
F1C0
3F80
0000
0000
E060
E060
E0E0
E3E0
E3E0
E7E0
FCE0
FCE0
F8E0
F8E0
E0E0
80E0
80E0
ENDCHAR
STARTCHAR uni041A
ENCODING 1050
SWIDTH 772 0
DWIDTH 14 0
BBX 11 13 2 0
BITMAP
E0E0
E0E0
E380
E700
E700
FC00
E700
E700
E380
E380
E0E0
E0E0
E0E0
ENDCHAR
STARTCHAR uni041B
ENCODING 1051
SWIDTH 772 0
DWIDTH 14 0
BBX 11 13 2 0
BITMAP
1FE0
1FE0
78E0
78E0
78E0
78E0
78E0
78E0
78E0
78E0
78E0
E0E0
E0E0
ENDCHAR
STARTCHAR uni041C
ENCODING 1052
SWIDTH 772 0
DWIDTH 14 0
BBX 11 13 2 0
BITMAP
8060
8060
E0E0
FBE0
FBE0
FFE0
E4E0
E4E0
E0E0
E0E0
E0E0
E0E0
E0E0
ENDCHAR
STARTCHAR uni041D
ENCODING 1053
SWIDTH 772 0
DWIDTH 14 0
BBX 11 13 2 0
BITMAP
E0E0
E0E0
E0E0
E0E0
E0E0
FFE0
E0E0
E0E0
E0E0
E0E0
E0E0
E0E0
E0E0
ENDCHAR
STARTCHAR uni041E
ENCODING 1054
SWIDTH 772 0
DWIDTH 14 0
BBX 11 13 2 0
BITMAP
7F80
7F80
E0E0
E0E0
E0E0
E0E0
E0E0
E0E0
E0E0
E0E0
E0E0
7F80
7F80
ENDCHAR
STARTCHAR uni041F
ENCODING 1055
SWIDTH 772 0
DWIDTH 14 0
BBX 11 13 2 0
BITMAP
FFE0
FFE0
E0E0
E0E0
E0E0
E0E0
E0E0
E0E0
E0E0
E0E0
E0E0
E0E0
E0E0
ENDCHAR
STARTCHAR uni0420
ENCODING 1056
SWIDTH 772 0
DWIDTH 14 0
BBX 11 13 2 0
BITMAP
FF80
FF80
E0E0
E0E0
E0E0
FF80
E000
E000
E000
E000
E000
E000
E000
ENDCHAR
STARTCHAR uni0421
ENCODING 1057
SWIDTH 772 0
DWIDTH 14 0
BBX 11 13 2 0
BITMAP
1F80
1F80
78E0
E000
E000
E000
E000
E000
E000
E000
78E0
1F80
1F80
ENDCHAR
STARTCHAR uni0422
ENCODING 1058
SWIDTH 772 0
DWIDTH 14 0
BBX 11 13 2 0
BITMAP
FFE0
FFE0
0E00
0E00
0E00
0E00
0E00
0E00
0E00
0E00
0E00
0E00
0E00
ENDCHAR
STARTCHAR uni0423
ENCODING 1059
SWIDTH 772 0
DWIDTH 14 0
BBX 11 13 2 0
BITMAP
E0E0
E0E0
E0E0
E0E0
E0E0
E0E0
7FE0
00E0
00E0
00E0
E0E0
7F80
7F80
ENDCHAR
STARTCHAR uni0424
ENCODING 1060
SWIDTH 1045 0
DWIDTH 19 0
BBX 16 13 2 0
BITMAP
0380
0380
7FFC
E387
E387
E387
E387
E387
E387
E387
7FFC
0380
0380
ENDCHAR
STARTCHAR uni0425
ENCODING 1061
SWIDTH 772 0
DWIDTH 14 0
BBX 11 13 2 0
BITMAP
E0E0
E0E0
E0E0
7B80
7B80
1F00
7B80
7B80
E0E0
E0E0
E0E0
E0E0
E0E0
ENDCHAR
STARTCHAR uni0426
ENCODING 1062
SWIDTH 863 0
DWIDTH 16 0
BBX 13 15 2 -2
BITMAP
E0E0
E0E0
E0E0
E0E0
E0E0
E0E0
E0E0
E0E0
E0E0
E0E0
E0E0
FFF8
FFF8
0078
0078
ENDCHAR
STARTCHAR uni0427
ENCODING 1063
SWIDTH 772 0
DWIDTH 14 0
BBX 11 13 2 0
BITMAP
E0E0
E0E0
E0E0
E0E0
E0E0
E0E0
7FE0
00E0
00E0
00E0
00E0
00E0
00E0
ENDCHAR
STARTCHAR uni0428
ENCODING 1064
SWIDTH 954 0
DWIDTH 17 0
BBX 14 13 2 0
BITMAP
E79C
E79C
E79C
E79C
E79C
E79C
E79C
E79C
E79C
E79C
E79C
FFFC
FFFC
ENDCHAR
STARTCHAR uni0429
ENCODING 1065
SWIDTH 1045 0
DWIDTH 19 0
BBX 16 15 2 -2
BITMAP
E79C
E79C
E79C
E79C
E79C
E79C
E79C
E79C
E79C
E79C
E79C
FFFF
FFFF
0007
0007
ENDCHAR
STARTCHAR uni042A
ENCODING 1066
SWIDTH 908 0
DWIDTH 16 0
BBX 14 13 2 0
BITMAP
F800
F800
3800
3800
3800
3FF0
383C
383C
383C
383C
383C
3FF0
3FF0
ENDCHAR
STARTCHAR uni042B
ENCODING 1067
SWIDTH 1045 0
DWIDTH 19 0
BBX 16 13 2 0
BITMAP
E007
E007
E007
E007
E007
FF87
E0E7
E0E7
E0E7
E0E7
E0E7
FF87
FF87
ENDCHAR
STARTCHAR uni042C
ENCODING 1068
SWIDTH 772 0
DWIDTH 14 0
BBX 11 13 2 0
BITMAP
E000
E000
E000
E000
E000
FF80
E0E0
E0E0
E0E0
E0E0
E0E0
FF80
FF80
ENDCHAR
STARTCHAR uni042D
ENCODING 1069
SWIDTH 772 0
DWIDTH 14 0
BBX 11 13 2 0
BITMAP
7F00
7F00
E380
00E0
00E0
00E0
1FE0
00E0
00E0
00E0
E380
7F00
7F00
ENDCHAR
STARTCHAR uni042E
ENCODING 1070
SWIDTH 1090 0
DWIDTH 20 0
BBX 17 13 2 0
BITMAP
F1FE00
F1FE00
F78380
F78380
F78380
F78380
FF8380
F78380
F78380
F78380
F78380
F1FE00
F1FE00
ENDCHAR
STARTCHAR uni042F
ENCODING 1071
SWIDTH 772 0
DWIDTH 14 0
BBX 11 13 2 0
BITMAP
7FE0
7FE0
E0E0
E0E0
E0E0
7FE0
E0E0
E0E0
E0E0
E0E0
E0E0
E0E0
E0E0
ENDCHAR
STARTCHAR uni0430
ENCODING 1072
SWIDTH 772 0
DWIDTH 14 0
BBX 11 8 2 0
BITMAP
7F80
00E0
00E0
7FE0
7FE0
E0E0
7FE0
7FE0
ENDCHAR
STARTCHAR uni0431
ENCODING 1073
SWIDTH 772 0
DWIDTH 14 0
BBX 11 13 2 0
BITMAP
7F80
7F80
E000
E000
E000
E780
FCE0
FCE0
E0E0
E0E0
E0E0
7F80
7F80
ENDCHAR
STARTCHAR uni0432
ENCODING 1074
SWIDTH 772 0
DWIDTH 14 0
BBX 11 8 2 0
BITMAP
FF80
E0E0
E0E0
FF80
FF80
E0E0
FF80
FF80
ENDCHAR
STARTCHAR uni0433
ENCODING 1075
SWIDTH 590 0
DWIDTH 11 0
BBX 8 8 2 0
BITMAP
FF
E0
E0
E0
E0
E0
E0
E0
ENDCHAR
STARTCHAR uni0434
ENCODING 1076
SWIDTH 863 0
DWIDTH 16 0
BBX 13 10 2 -2
BITMAP
1FE0
78E0
78E0
78E0
78E0
78E0
FFF8
FFF8
E078
E078
ENDCHAR
STARTCHAR uni0435
ENCODING 1077
SWIDTH 772 0
DWIDTH 14 0
BBX 11 8 2 0
BITMAP
7F80
E0E0
E0E0
FFE0
FFE0
E000
7F80
7F80
ENDCHAR
STARTCHAR uni0436
ENCODING 1078
SWIDTH 863 0
DWIDTH 16 0
BBX 13 8 2 0
BITMAP
E778
E778
E778
7FE0
7FE0
E778
E778
E778
ENDCHAR
STARTCHAR uni0437
ENCODING 1079
SWIDTH 772 0
DWIDTH 14 0
BBX 11 8 2 0
BITMAP
7F80
E0E0
E0E0
0780
0780
E0E0
7F80
7F80
ENDCHAR
STARTCHAR uni0438
ENCODING 1080
SWIDTH 772 0
DWIDTH 14 0
BBX 11 8 2 0
BITMAP
E0E0
E3E0
E7E0
E7E0
FCE0
FCE0
F8E0
E0E0
ENDCHAR
STARTCHAR uni0439
ENCODING 1081
SWIDTH 772 0
DWIDTH 14 0
BBX 11 13 2 0
BITMAP
F1C0
F1C0
3F80
0000
0000
E0E0
E3E0
E7E0
E7E0
FCE0
FCE0
F8E0
E0E0
ENDCHAR
STARTCHAR uni043A
ENCODING 1082
SWIDTH 681 0
DWIDTH 12 0
BBX 9 8 2 0
BITMAP
E380
E700
E700
FC00
FC00
E700
E380
E380
ENDCHAR
STARTCHAR uni043B
ENCODING 1083
SWIDTH 772 0
DWIDTH 14 0
BBX 11 8 2 0
BITMAP
1FE0
78E0
78E0
78E0
78E0
78E0
E0E0
E0E0
ENDCHAR
STARTCHAR uni043C
ENCODING 1084
SWIDTH 772 0
DWIDTH 14 0
BBX 11 8 2 0
BITMAP
E0E0
FBE0
FBE0
FFE0
FFE0
E4E0
E0E0
E0E0
ENDCHAR
STARTCHAR uni043D
ENCODING 1085
SWIDTH 772 0
DWIDTH 14 0
BBX 11 8 2 0
BITMAP
E0E0
E0E0
E0E0
FFE0
FFE0
E0E0
E0E0
E0E0
ENDCHAR
STARTCHAR uni043E
ENCODING 1086
SWIDTH 772 0
DWIDTH 14 0
BBX 11 8 2 0
BITMAP
7F80
E0E0
E0E0
E0E0
E0E0
E0E0
7F80
7F80
ENDCHAR
STARTCHAR uni043F
ENCODING 1087
SWIDTH 772 0
DWIDTH 14 0
BBX 11 8 2 0
BITMAP
FFE0
E0E0
E0E0
E0E0
E0E0
E0E0
E0E0
E0E0
ENDCHAR
STARTCHAR uni0440
ENCODING 1088
SWIDTH 772 0
DWIDTH 14 0
BBX 11 13 2 -5
BITMAP
FF80
E0E0
E0E0
E0E0
E0E0
E0E0
FF80
FF80
E000
E000
E000
E000
E000
ENDCHAR
STARTCHAR uni0441
ENCODING 1089
SWIDTH 772 0
DWIDTH 14 0
BBX 11 8 2 0
BITMAP
7F80
E0E0
E0E0
E000
E000
E0E0
7F80
7F80
ENDCHAR
STARTCHAR uni0442
ENCODING 1090
SWIDTH 681 0
DWIDTH 12 0
BBX 9 8 2 0
BITMAP
FF80
1C00
1C00
1C00
1C00
1C00
1C00
1C00
ENDCHAR
STARTCHAR uni0443
ENCODING 1091
SWIDTH 772 0
DWIDTH 14 0
BBX 11 13 2 -5
BITMAP
E0E0
E0E0
E0E0
E0E0
E0E0
E0E0
7FE0
7FE0
00E0
00E0
00E0
7F80
7F80
ENDCHAR
STARTCHAR uni0444
ENCODING 1092
SWIDTH 954 0
DWIDTH 17 0
BBX 14 18 2 -5
BITMAP
0780
0780
0780
0780
0780
7FF8
E79C
E79C
E79C
E79C
E79C
7FF8
7FF8
0780
0780
0780
0780
0780
ENDCHAR
STARTCHAR uni0445
ENCODING 1093
SWIDTH 772 0
DWIDTH 14 0
BBX 11 8 2 0
BITMAP
E0E0
7B80
7F80
1F00
1F00
7F80
E0E0
E0E0
ENDCHAR
STARTCHAR uni0446
ENCODING 1094
SWIDTH 863 0
DWIDTH 16 0
BBX 13 10 2 -2
BITMAP
E0E0
E0E0
E0E0
E0E0
E0E0
E0E0
FFF8
FFF8
0078
0078
ENDCHAR
STARTCHAR uni0447
ENCODING 1095
SWIDTH 772 0
DWIDTH 14 0
BBX 11 8 2 0
BITMAP
E0E0
E0E0
E0E0
E0E0
7FE0
7FE0
00E0
00E0
ENDCHAR
STARTCHAR uni0448
ENCODING 1096
SWIDTH 863 0
DWIDTH 16 0
BBX 13 8 2 0
BITMAP
E778
E778
E778
E778
E778
E778
FFF8
FFF8
ENDCHAR
STARTCHAR uni0449
ENCODING 1097
SWIDTH 954 0
DWIDTH 17 0
BBX 14 10 2 -2
BITMAP
E778
E778
E778
E778
E778
E778
FFFC
FFFC
001C
001C
ENDCHAR
STARTCHAR uni044A
ENCODING 1098
SWIDTH 908 0
DWIDTH 16 0
BBX 14 8 2 0
BITMAP
F800
3800
3800
3FF0
3FF0
383C
3FF0
3FF0
ENDCHAR
STARTCHAR uni044B
ENCODING 1099
SWIDTH 954 0
DWIDTH 17 0
BBX 14 8 2 0
BITMAP
E01C
E01C
E01C
FF1C
FF1C
E39C
FF1C
FF1C
ENDCHAR
STARTCHAR uni044C
ENCODING 1100
SWIDTH 772 0
DWIDTH 14 0
BBX 11 8 2 0
BITMAP
E000
E000
E000
FF80
FF80
E0E0
FF80
FF80
ENDCHAR
STARTCHAR uni044D
ENCODING 1101
SWIDTH 772 0
DWIDTH 14 0
BBX 11 8 2 0
BITMAP
7F80
E0E0
E0E0
07E0
07E0
E0E0
7F80
7F80
ENDCHAR
STARTCHAR uni044E
ENCODING 1102
SWIDTH 1045 0
DWIDTH 19 0
BBX 16 8 2 0
BITMAP
E3FC
E707
E707
FF07
FF07
E707
E3FC
E3FC
ENDCHAR
STARTCHAR uni044F
ENCODING 1103
SWIDTH 772 0
DWIDTH 14 0
BBX 11 8 2 0
BITMAP
7FE0
E0E0
E0E0
7FE0
7FE0
E0E0
E0E0
E0E0
ENDCHAR
STARTCHAR uni0450
ENCODING 1104
SWIDTH 772 0
DWIDTH 14 0
BBX 11 13 2 0
BITMAP
3800
3800
0E00
0000
0000
7F80
E0E0
E0E0
FFE0
FFE0
E000
7F80
7F80
ENDCHAR
STARTCHAR uni0451
ENCODING 1105
SWIDTH 772 0
DWIDTH 14 0
BBX 11 13 2 0
BITMAP
7B80
7B80
7B80
0000
0000
7F80
E0E0
E0E0
FFE0
FFE0
E000
7F80
7F80
ENDCHAR
STARTCHAR uni0453
ENCODING 1107
SWIDTH 590 0
DWIDTH 11 0
BBX 8 13 2 0
BITMAP
0E
0E
38
00
00
FF
E0
E0
E0
E0
E0
E0
E0
ENDCHAR
STARTCHAR uni0454
ENCODING 1108
SWIDTH 772 0
DWIDTH 14 0
BBX 11 8 2 0
BITMAP
7F80
E0E0
E0E0
FC00
FC00
E0E0
7F80
7F80
ENDCHAR
STARTCHAR uni0456
ENCODING 1110
SWIDTH 318 0
DWIDTH 6 0
BBX 3 13 2 0
BITMAP
E0
E0
E0
00
00
E0
E0
E0
E0
E0
E0
E0
E0
ENDCHAR
STARTCHAR uni0457
ENCODING 1111
SWIDTH 454 0
DWIDTH 8 0
BBX 8 13 -1 0
BITMAP
E7
E7
E7
00
00
1C
1C
1C
1C
1C
1C
1C
1C
ENDCHAR
STARTCHAR uni0459
ENCODING 1113
SWIDTH 1136 0
DWIDTH 20 0
BBX 18 8 2 0
BITMAP
7FE000
78E000
78E000
78FF00
78FF00
78E3C0
E0FF00
E0FF00
ENDCHAR
STARTCHAR uni045A
ENCODING 1114
SWIDTH 1136 0
DWIDTH 20 0
BBX 18 8 2 0
BITMAP
E0E000
E0E000
E0E000
FFFF00
FFFF00
E0E3C0
E0FF00
E0FF00
ENDCHAR
STARTCHAR uni045B
ENCODING 1115
SWIDTH 772 0
DWIDTH 14 0
BBX 13 13 0 0
BITMAP
3800
3800
FF00
3800
3800
39E0
3F38
3F38
3838
3838
3838
3838
3838
ENDCHAR
STARTCHAR uni045C
ENCODING 1116
SWIDTH 681 0
DWIDTH 12 0
BBX 9 13 2 0
BITMAP
0700
0700
1C00
0000
0000
E380
E700
E700
FC00
FC00
E700
E380
E380
ENDCHAR
STARTCHAR uni045D
ENCODING 1117
SWIDTH 772 0
DWIDTH 14 0
BBX 11 13 2 0
BITMAP
3800
3800
0E00
0000
0000
E0E0
E3E0
E7E0
E7E0
FCE0
FCE0
F8E0
E0E0
ENDCHAR
STARTCHAR uni045E
ENCODING 1118
SWIDTH 772 0
DWIDTH 14 0
BBX 11 18 2 -5
BITMAP
F1C0
F1C0
3F80
0000
0000
E0E0
E0E0
E0E0
E0E0
E0E0
E0E0
7FE0
7FE0
00E0
00E0
00E0
7F80
7F80
ENDCHAR
STARTCHAR uni0490
ENCODING 1168
SWIDTH 681 0
DWIDTH 12 0
BBX 9 16 2 0
BITMAP
0380
0380
0380
FF80
FF80
E000
E000
E000
E000
E000
E000
E000
E000
E000
E000
E000
ENDCHAR
STARTCHAR uni0491
ENCODING 1169
SWIDTH 590 0
DWIDTH 11 0
BBX 8 11 2 0
BITMAP
07
07
07
FF
E0
E0
E0
E0
E0
E0
E0
ENDCHAR
STARTCHAR uni0492
ENCODING 1170
SWIDTH 681 0
DWIDTH 12 0
BBX 11 13 0 0
BITMAP
3FE0
3FE0
3800
3800
3800
FF00
3800
3800
3800
3800
3800
3800
3800
ENDCHAR
STARTCHAR uni0493
ENCODING 1171
SWIDTH 590 0
DWIDTH 11 0
BBX 10 8 0 0
BITMAP
3FC0
3800
3800
FF00
FF00
3800
3800
3800
ENDCHAR
STARTCHAR uni0496
ENCODING 1174
SWIDTH 954 0
DWIDTH 17 0
BBX 14 15 2 -2
BITMAP
E778
E778
E778
E778
E778
E778
7FE0
E778
E778
E778
E778
E77C
E77C
001C
001C
ENDCHAR
STARTCHAR uni0497
ENCODING 1175
SWIDTH 954 0
DWIDTH 17 0
BBX 14 10 2 -2
BITMAP
E778
E778
E778
7FE0
7FE0
E778
E77C
E77C
001C
001C
ENDCHAR
STARTCHAR uni049A
ENCODING 1178
SWIDTH 863 0
DWIDTH 16 0
BBX 13 15 2 -2
BITMAP
E0E0
E0E0
E380
E700
E700
FC00
E700
E700
E380
E380
E0E0
E0F8
E0F8
0078
0078
ENDCHAR
STARTCHAR uni049B
ENCODING 1179
SWIDTH 818 0
DWIDTH 15 0
BBX 12 10 2 -2
BITMAP
E1C0
E700
E700
FC00
FC00
E700
E3F0
E3F0
0070
0070
ENDCHAR
STARTCHAR uni049C
ENCODING 1180
SWIDTH 863 0
DWIDTH 16 0
BBX 13 13 2 0
BITMAP
E078
E078
E8E0
EB80
EB80
FF00
EB80
EB80
E8E0
E8E0
E078
E078
E078
ENDCHAR
STARTCHAR uni049D
ENCODING 1181
SWIDTH 772 0
DWIDTH 14 0
BBX 11 8 2 0
BITMAP
E0E0
EB80
EB80
FF00
FF00
EB80
E0E0
E0E0
ENDCHAR
STARTCHAR uni049E
ENCODING 1182
SWIDTH 772 0
DWIDTH 14 0
BBX 13 13 0 0
BITMAP
3838
3838
FEE0
39C0
39C0
3F00
39C0
39C0
38E0
38E0
3838
3838
3838
ENDCHAR
STARTCHAR uni049F
ENCODING 1183
SWIDTH 727 0
DWIDTH 13 0
BBX 12 13 0 0
BITMAP
3800
3800
FE00
FE00
3800
3870
39C0
39C0
3F00
3F00
39C0
38E0
38E0
ENDCHAR
STARTCHAR uni04A0
ENCODING 1184
SWIDTH 908 0
DWIDTH 16 0
BBX 14 13 2 0
BITMAP
F83C
F83C
3870
39C0
39C0
3F80
39C0
39C0
3870
3870
383C
383C
383C
ENDCHAR
STARTCHAR uni04A1
ENCODING 1185
SWIDTH 863 0
DWIDTH 16 0
BBX 13 8 2 0
BITMAP
F878
39C0
39C0
3F80
3F80
39C0
3878
3878
ENDCHAR
STARTCHAR uni04A2
ENCODING 1186
SWIDTH 863 0
DWIDTH 16 0
BBX 13 15 2 -2
BITMAP
E0E0
E0E0
E0E0
E0E0
E0E0
FFE0
E0E0
E0E0
E0E0
E0E0
E0E0
E0F8
E0F8
0078
0078
ENDCHAR
STARTCHAR uni04A3
ENCODING 1187
SWIDTH 863 0
DWIDTH 16 0
BBX 13 10 2 -2
BITMAP
E0E0
E0E0
E0E0
FFE0
FFE0
E0E0
E0F8
E0F8
0078
0078
ENDCHAR
STARTCHAR uni04A4
ENCODING 1188
SWIDTH 908 0
DWIDTH 16 0
BBX 14 13 2 0
BITMAP
E0FC
E0FC
E0E0
E0E0
E0E0
FFE0
E0E0
E0E0
E0E0
E0E0
E0E0
E0E0
E0E0
ENDCHAR
STARTCHAR uni04A5
ENCODING 1189
SWIDTH 954 0
DWIDTH 17 0
BBX 14 8 2 0
BITMAP
E0FC
E0E0
E0E0
FFE0
FFE0
E0E0
E0E0
E0E0
ENDCHAR
STARTCHAR uni04AC
ENCODING 1196
SWIDTH 772 0
DWIDTH 14 0
BBX 11 15 2 -2
BITMAP
FFE0
FFE0
0E00
0E00
0E00
0E00
0E00
0E00
0E00
0E00
0E00
0F80
0F80
0380
0380
ENDCHAR
STARTCHAR uni04AD
ENCODING 1197
SWIDTH 681 0
DWIDTH 12 0
BBX 9 10 2 -2
BITMAP
FF80
1C00
1C00
1C00
1C00
1C00
1F80
1F80
0780
0780
ENDCHAR
STARTCHAR quoteleft
ENCODING 8216
SWIDTH 408 0
DWIDTH 7 0
BBX 5 5 2 8
BITMAP
78
78
E0
E0
E0
ENDCHAR
STARTCHAR quoteright
ENCODING 8217
SWIDTH 318 0
DWIDTH 6 0
BBX 5 5 0 8
BITMAP
38
38
38
E0
E0
ENDCHAR
STARTCHAR quotedblleft
ENCODING 8220
SWIDTH 681 0
DWIDTH 12 0
BBX 9 5 2 8
BITMAP
7B80
7B80
E700
E700
E700
ENDCHAR
STARTCHAR quotedblright
ENCODING 8221
SWIDTH 590 0
DWIDTH 11 0
BBX 10 5 0 8
BITMAP
39C0
39C0
39C0
E700
E700
ENDCHAR
STARTCHAR Euro
ENCODING 8364
SWIDTH 863 0
DWIDTH 16 0
BBX 14 13 1 0
BITMAP
03F0
03F0
0E3C
3C00
3C00
7FC0
3C00
7FC0
FF80
3C00
1E3C
07F0
07F0
ENDCHAR
STARTCHAR trademark
ENCODING 8482
SWIDTH 954 0
DWIDTH 17 0
BBX 14 6 2 7
BITMAP
FF04
FF04
339C
3364
3364
3304
ENDCHAR
STARTCHAR uniFB00
ENCODING 64256
SWIDTH 954 0
DWIDTH 17 0
BBX 14 13 2 0
BITMAP
1F7C
1F7C
78E0
78E0
78E0
FFFC
78E0
78E0
78E0
78E0
78E0
78E0
78E0
ENDCHAR
STARTCHAR uniFB01
ENCODING 64257
SWIDTH 772 0
DWIDTH 14 0
BBX 11 13 2 0
BITMAP
1F00
1F00
7800
7800
7800
FFE0
78E0
78E0
78E0
78E0
78E0
78E0
78E0
ENDCHAR
STARTCHAR uniFB02
ENCODING 64258
SWIDTH 863 0
DWIDTH 16 0
BBX 13 13 2 0
BITMAP
1FE0
1FE0
78E0
78E0
78E0
FFE0
78E0
78E0
78E0
78E0
78E0
7878
7878
ENDCHAR
STARTCHAR uniFB03
ENCODING 64259
SWIDTH 1136 0
DWIDTH 20 0
BBX 18 13 2 0
BITMAP
1F7C00
1F7C00
78E000
78E000
78E000
FFFFC0
78E3C0
78E3C0
78E3C0
78E3C0
78E3C0
78E3C0
78E3C0
ENDCHAR
STARTCHAR uniFB04
ENCODING 64260
SWIDTH 1227 0
DWIDTH 22 0
BBX 19 13 2 0
BITMAP
1F7FC0
1F7FC0
78E3C0
78E3C0
78E3C0
FFFFC0
78E3C0
78E3C0
78E3C0
78E3C0
78E3C0
78E0E0
78E0E0
ENDCHAR
STARTCHAR .notdef
ENCODING -1
SWIDTH 599 0
DWIDTH 11 0
BBX 7 23 3 -5
BITMAP
FE
EE
EE
82
8E
EE
82
9E
E2
8E
FE
82
FE
EE
BA
C6
82
FE
82
82
F6
C2
FE
ENDCHAR
STARTCHAR glyph1
ENCODING -1
SWIDTH 45 0
DWIDTH 1 0
BBX 1 1 0 0
BITMAP
00
ENDCHAR
STARTCHAR glyph2
ENCODING -1
SWIDTH 45 0
DWIDTH 1 0
BBX 1 1 0 0
BITMAP
00
ENDCHAR
ENDFONT
